<svg xmlns="http://www.w3.org/2000/svg" xmlns:xlink="http://www.w3.org/1999/xlink" version="1.1" x="0px" y="0px" viewBox="0 0 54.199 109.91250000000001" enable-background="new 0 0 54.199 87.93" xml:space="preserve"><path fill="#000000" d="M32.94,37.416c1.431,0,2.591-1.879,2.591-4.198c0-2.318-1.16-4.198-2.591-4.198  c-1.43,0-2.59,1.88-2.59,4.198C30.351,35.537,31.511,37.416,32.94,37.416z M52.332,44.927c2.481-1.371,1.774-2.285,1.774-2.285  s-0.708-0.914-3.039-2.804c-0.799-0.647-1.271-1.301-1.551-1.882c1.995-3.65,3.131-7.837,3.132-12.291  C52.646,11.489,41.158,0.002,26.986,0C12.811,0.002,1.321,11.489,1.321,25.665c0,0.49,0.02,0.975,0.048,1.457  c0.013,0.233,0.033,0.464,0.053,0.695c0.017,0.19,0.034,0.38,0.056,0.569c0.376,3.545,1.464,6.877,3.133,9.843  c-0.15,0.52-0.394,1.064-0.787,1.606c-1.762,2.429-3.348,4.017-3.348,4.017s-1.586,1.585,1.037,2.662l4.332,1.773  c0,0,0.898,0.363,1.938,0.182c-0.438,0.564-0.851,1.15-1.229,1.764c-3.796,6.104-4.823,14.139-4.836,22.834  c0.085,1.184,0.74,1.516,1.006,1.729c0.568,0.359,1.062,0.506,1.644,0.701c0.85,0.268,1.811,0.514,2.506,0.736  c0.057,0.02,0.111,0.037,0.164,0.055c-0.061,2-0.667,3.902-0.703,5.84c0,0.713,0.102,1.504,0.53,2.27  c0.421,0.77,1.18,1.373,2.021,1.691c2.043,0.779,5.102,1.172,8.514,1.459c3.39,0.273,7.033,0.383,9.875,0.383  c3.064-0.002,6.692-0.197,10.024-0.609c3.349-0.426,6.329-1.002,8.394-2.008c0.855-0.41,1.551-1.135,1.901-1.93  c0.359-0.797,0.434-1.584,0.438-2.324c-0.017-1.617-0.362-3.209-0.38-4.775c0.585-0.201,1.481-0.447,2.288-0.697  c0.498-0.156,0.963-0.311,1.419-0.525c0.23-0.111,0.459-0.23,0.737-0.465c0.248-0.219,0.71-0.664,0.735-1.529  c-0.015-8.662-0.785-16.682-4.462-22.811c-0.554-0.93-1.204-1.783-1.903-2.6c0.897,0.01,1.654-0.404,1.654-0.404L52.332,44.927z   M49.37,72.137c-0.521,0.176-1.306,0.404-2.016,0.613c-0.22,0.066-0.433,0.135-0.645,0.205l-0.945-4.533l-2.016-9.676  c0,0-0.139,5.881,0.042,9.508c0.128,2.543,0.323,5.461,0.43,6.984c-0.021,0.273-0.029,0.568-0.029,0.854  c0.011,2.078,0.396,3.881,0.381,4.967c0.002,0.477-0.065,0.77-0.125,0.891c-0.067,0.115-0.062,0.139-0.296,0.27  c-1.28,0.654-4.133,1.295-7.278,1.672c-3.161,0.393-6.685,0.582-9.601,0.582c-2.75,0-6.332-0.107-9.596-0.371  c-3.243-0.25-6.265-0.719-7.532-1.232c-0.278-0.119-0.247-0.145-0.271-0.168c-0.021-0.027-0.086-0.193-0.084-0.574  c-0.038-1.131,0.688-3.477,0.705-6.238c0-0.018-0.001-0.037-0.001-0.055c0.093-1.312,0.319-4.615,0.462-7.451  c0.181-3.627,0.042-9.508,0.042-9.508l-2.016,9.676l-0.926,4.438c-0.65-0.215-1.318-0.383-1.983-0.588  c-0.329-0.094-0.643-0.189-0.896-0.275c0.069-8.037,1.203-15.135,4.307-20.059c1.115-1.754,2.471-3.27,4.143-4.512  c1.554,0.951,3.211,1.742,4.96,2.35c0.312,1.061,1.105,3.109,3.012,5.578c2.69,3.48,5.415,5.42,5.475,5.465l0.706,0.502l0.683-0.535  c0.072-0.057,2.463-1.943,5.116-5.848c1.566-2.301,2.183-4.162,2.425-5.381c1.721-0.646,3.345-1.486,4.867-2.469  c1.897,1.297,3.368,2.922,4.539,4.826C48.397,56.946,49.319,64.063,49.37,72.137z M10.668,45.487  c0.001-0.004,0.003-0.006,0.004-0.01c0.002,0,0.003,0.002,0.005,0.004L10.668,45.487z M21.364,50.684  c1.812,0.406,3.688,0.643,5.622,0.643c2.208,0,4.342-0.299,6.385-0.824c-0.312,0.865-0.832,1.963-1.713,3.262  c-1.242,1.826-2.417,3.172-3.272,4.055c-0.26,0.268-0.491,0.492-0.685,0.676c-0.229-0.189-0.507-0.428-0.823-0.713  c-0.944-0.854-2.203-2.111-3.443-3.719C22.41,52.737,21.773,51.584,21.364,50.684z M43.754,45.073  c0.04-0.033,0.084-0.064,0.123-0.098c0.015,0.082,0.035,0.146,0.052,0.225C43.873,45.155,43.811,45.118,43.754,45.073z   M26.986,47.872c-10.313-0.02-18.968-7.038-21.475-16.56c0.609-0.064,1.354-0.203,2.257-0.496c0,0,12.75-4.139,16.252-8.654  c3.502-4.515,3.669-6.482,3.669-6.482s0.166-1.966,1.205,0.672c0,0,2.025,5.144,7.3,8.14c5.272,2.996,10.983,7.688,10.983,7.688  s0.062,0.046,0.146,0.104c0.21,0.246,0.417,0.471,0.619,0.666C44.919,41.626,36.693,47.852,26.986,47.872z M40.041,38.126  c-0.002,0-0.28,0.297-0.86,0.782c-1.741,1.467-5.978,4.405-11.643,4.399c-3.813,0-7.022-1.105-9.277-2.215  c-1.127-0.556-2.014-1.11-2.614-1.521c-0.6-0.412-0.889-0.667-0.893-0.665c-0.363-0.31-0.907-0.269-1.218,0.095  c-0.31,0.363-0.268,0.908,0.095,1.218c0.078,0.057,5.598,4.803,13.907,4.817c8.378-0.021,13.683-5.662,13.756-5.724  c0.33-0.346,0.314-0.893-0.031-1.22C40.915,37.763,40.368,37.777,40.041,38.126z M21.506,37.416c1.432,0,2.592-1.879,2.592-4.198  c0-2.318-1.16-4.198-2.592-4.198c-1.43,0-2.59,1.88-2.59,4.198C18.917,35.537,20.077,37.416,21.506,37.416z"/><text x="0" y="102.93" fill="#000000" font-size="5px" font-weight="bold" font-family="'Helvetica Neue', Helvetica, Arial-Unicode, Arial, Sans-serif">Created by Javier Cabezas</text><text x="0" y="107.93" fill="#000000" font-size="5px" font-weight="bold" font-family="'Helvetica Neue', Helvetica, Arial-Unicode, Arial, Sans-serif">from the Noun Project</text></svg>